G04 #@! TF.GenerationSoftware,KiCad,Pcbnew,9.0.3*
G04 #@! TF.CreationDate,2025-12-21T00:38:46-08:00*
G04 #@! TF.ProjectId,games_aparat_electronics,67616d65-735f-4617-9061-7261745f656c,rev?*
G04 #@! TF.SameCoordinates,Original*
G04 #@! TF.FileFunction,Legend,Top*
G04 #@! TF.FilePolarity,Positive*
%FSLAX46Y46*%
G04 Gerber Fmt 4.6, Leading zero omitted, Abs format (unit mm)*
G04 Created by KiCad (PCBNEW 9.0.3) date 2025-12-21 00:38:46*
%MOMM*%
%LPD*%
G01*
G04 APERTURE LIST*
G04 Aperture macros list*
%AMFreePoly0*
4,1,5,0.750000,-1.000000,-0.750000,-1.000000,-0.750000,1.000000,0.750000,1.000000,0.750000,-1.000000,0.750000,-1.000000,$1*%
G04 Aperture macros list end*
%ADD10C,0.100000*%
%ADD11C,0.000000*%
%ADD12C,0.127000*%
%ADD13C,1.000000*%
%ADD14R,2.500000X2.500000*%
%ADD15C,2.000000*%
%ADD16FreePoly0,0.000000*%
%ADD17FreePoly0,270.000000*%
%ADD18O,2.000000X3.500000*%
%ADD19C,1.734000*%
G04 APERTURE END LIST*
D10*
X157627580Y-45161027D02*
X156627580Y-45494360D01*
X156627580Y-45494360D02*
X157627580Y-45827693D01*
X156722819Y-46732455D02*
X156675200Y-46684836D01*
X156675200Y-46684836D02*
X156627580Y-46541979D01*
X156627580Y-46541979D02*
X156627580Y-46446741D01*
X156627580Y-46446741D02*
X156675200Y-46303884D01*
X156675200Y-46303884D02*
X156770438Y-46208646D01*
X156770438Y-46208646D02*
X156865676Y-46161027D01*
X156865676Y-46161027D02*
X157056152Y-46113408D01*
X157056152Y-46113408D02*
X157199009Y-46113408D01*
X157199009Y-46113408D02*
X157389485Y-46161027D01*
X157389485Y-46161027D02*
X157484723Y-46208646D01*
X157484723Y-46208646D02*
X157579961Y-46303884D01*
X157579961Y-46303884D02*
X157627580Y-46446741D01*
X157627580Y-46446741D02*
X157627580Y-46541979D01*
X157627580Y-46541979D02*
X157579961Y-46684836D01*
X157579961Y-46684836D02*
X157532342Y-46732455D01*
X156722819Y-47732455D02*
X156675200Y-47684836D01*
X156675200Y-47684836D02*
X156627580Y-47541979D01*
X156627580Y-47541979D02*
X156627580Y-47446741D01*
X156627580Y-47446741D02*
X156675200Y-47303884D01*
X156675200Y-47303884D02*
X156770438Y-47208646D01*
X156770438Y-47208646D02*
X156865676Y-47161027D01*
X156865676Y-47161027D02*
X157056152Y-47113408D01*
X157056152Y-47113408D02*
X157199009Y-47113408D01*
X157199009Y-47113408D02*
X157389485Y-47161027D01*
X157389485Y-47161027D02*
X157484723Y-47208646D01*
X157484723Y-47208646D02*
X157579961Y-47303884D01*
X157579961Y-47303884D02*
X157627580Y-47446741D01*
X157627580Y-47446741D02*
X157627580Y-47541979D01*
X157627580Y-47541979D02*
X157579961Y-47684836D01*
X157579961Y-47684836D02*
X157532342Y-47732455D01*
X162675200Y-45256265D02*
X162627580Y-45399122D01*
X162627580Y-45399122D02*
X162627580Y-45637217D01*
X162627580Y-45637217D02*
X162675200Y-45732455D01*
X162675200Y-45732455D02*
X162722819Y-45780074D01*
X162722819Y-45780074D02*
X162818057Y-45827693D01*
X162818057Y-45827693D02*
X162913295Y-45827693D01*
X162913295Y-45827693D02*
X163008533Y-45780074D01*
X163008533Y-45780074D02*
X163056152Y-45732455D01*
X163056152Y-45732455D02*
X163103771Y-45637217D01*
X163103771Y-45637217D02*
X163151390Y-45446741D01*
X163151390Y-45446741D02*
X163199009Y-45351503D01*
X163199009Y-45351503D02*
X163246628Y-45303884D01*
X163246628Y-45303884D02*
X163341866Y-45256265D01*
X163341866Y-45256265D02*
X163437104Y-45256265D01*
X163437104Y-45256265D02*
X163532342Y-45303884D01*
X163532342Y-45303884D02*
X163579961Y-45351503D01*
X163579961Y-45351503D02*
X163627580Y-45446741D01*
X163627580Y-45446741D02*
X163627580Y-45684836D01*
X163627580Y-45684836D02*
X163579961Y-45827693D01*
X162722819Y-46827693D02*
X162675200Y-46780074D01*
X162675200Y-46780074D02*
X162627580Y-46637217D01*
X162627580Y-46637217D02*
X162627580Y-46541979D01*
X162627580Y-46541979D02*
X162675200Y-46399122D01*
X162675200Y-46399122D02*
X162770438Y-46303884D01*
X162770438Y-46303884D02*
X162865676Y-46256265D01*
X162865676Y-46256265D02*
X163056152Y-46208646D01*
X163056152Y-46208646D02*
X163199009Y-46208646D01*
X163199009Y-46208646D02*
X163389485Y-46256265D01*
X163389485Y-46256265D02*
X163484723Y-46303884D01*
X163484723Y-46303884D02*
X163579961Y-46399122D01*
X163579961Y-46399122D02*
X163627580Y-46541979D01*
X163627580Y-46541979D02*
X163627580Y-46637217D01*
X163627580Y-46637217D02*
X163579961Y-46780074D01*
X163579961Y-46780074D02*
X163532342Y-46827693D01*
X162627580Y-47732455D02*
X162627580Y-47256265D01*
X162627580Y-47256265D02*
X163627580Y-47256265D01*
X160579961Y-45827693D02*
X160627580Y-45732455D01*
X160627580Y-45732455D02*
X160627580Y-45589598D01*
X160627580Y-45589598D02*
X160579961Y-45446741D01*
X160579961Y-45446741D02*
X160484723Y-45351503D01*
X160484723Y-45351503D02*
X160389485Y-45303884D01*
X160389485Y-45303884D02*
X160199009Y-45256265D01*
X160199009Y-45256265D02*
X160056152Y-45256265D01*
X160056152Y-45256265D02*
X159865676Y-45303884D01*
X159865676Y-45303884D02*
X159770438Y-45351503D01*
X159770438Y-45351503D02*
X159675200Y-45446741D01*
X159675200Y-45446741D02*
X159627580Y-45589598D01*
X159627580Y-45589598D02*
X159627580Y-45684836D01*
X159627580Y-45684836D02*
X159675200Y-45827693D01*
X159675200Y-45827693D02*
X159722819Y-45875312D01*
X159722819Y-45875312D02*
X160056152Y-45875312D01*
X160056152Y-45875312D02*
X160056152Y-45684836D01*
X159627580Y-46303884D02*
X160627580Y-46303884D01*
X160627580Y-46303884D02*
X159627580Y-46875312D01*
X159627580Y-46875312D02*
X160627580Y-46875312D01*
X159627580Y-47351503D02*
X160627580Y-47351503D01*
X160627580Y-47351503D02*
X160627580Y-47589598D01*
X160627580Y-47589598D02*
X160579961Y-47732455D01*
X160579961Y-47732455D02*
X160484723Y-47827693D01*
X160484723Y-47827693D02*
X160389485Y-47875312D01*
X160389485Y-47875312D02*
X160199009Y-47922931D01*
X160199009Y-47922931D02*
X160056152Y-47922931D01*
X160056152Y-47922931D02*
X159865676Y-47875312D01*
X159865676Y-47875312D02*
X159770438Y-47827693D01*
X159770438Y-47827693D02*
X159675200Y-47732455D01*
X159675200Y-47732455D02*
X159627580Y-47589598D01*
X159627580Y-47589598D02*
X159627580Y-47351503D01*
X165675200Y-45256265D02*
X165627580Y-45399122D01*
X165627580Y-45399122D02*
X165627580Y-45637217D01*
X165627580Y-45637217D02*
X165675200Y-45732455D01*
X165675200Y-45732455D02*
X165722819Y-45780074D01*
X165722819Y-45780074D02*
X165818057Y-45827693D01*
X165818057Y-45827693D02*
X165913295Y-45827693D01*
X165913295Y-45827693D02*
X166008533Y-45780074D01*
X166008533Y-45780074D02*
X166056152Y-45732455D01*
X166056152Y-45732455D02*
X166103771Y-45637217D01*
X166103771Y-45637217D02*
X166151390Y-45446741D01*
X166151390Y-45446741D02*
X166199009Y-45351503D01*
X166199009Y-45351503D02*
X166246628Y-45303884D01*
X166246628Y-45303884D02*
X166341866Y-45256265D01*
X166341866Y-45256265D02*
X166437104Y-45256265D01*
X166437104Y-45256265D02*
X166532342Y-45303884D01*
X166532342Y-45303884D02*
X166579961Y-45351503D01*
X166579961Y-45351503D02*
X166627580Y-45446741D01*
X166627580Y-45446741D02*
X166627580Y-45684836D01*
X166627580Y-45684836D02*
X166579961Y-45827693D01*
X165627580Y-46256265D02*
X166627580Y-46256265D01*
X166627580Y-46256265D02*
X166627580Y-46494360D01*
X166627580Y-46494360D02*
X166579961Y-46637217D01*
X166579961Y-46637217D02*
X166484723Y-46732455D01*
X166484723Y-46732455D02*
X166389485Y-46780074D01*
X166389485Y-46780074D02*
X166199009Y-46827693D01*
X166199009Y-46827693D02*
X166056152Y-46827693D01*
X166056152Y-46827693D02*
X165865676Y-46780074D01*
X165865676Y-46780074D02*
X165770438Y-46732455D01*
X165770438Y-46732455D02*
X165675200Y-46637217D01*
X165675200Y-46637217D02*
X165627580Y-46494360D01*
X165627580Y-46494360D02*
X165627580Y-46256265D01*
X165913295Y-47208646D02*
X165913295Y-47684836D01*
X165627580Y-47113408D02*
X166627580Y-47446741D01*
X166627580Y-47446741D02*
X165627580Y-47780074D01*
X155809523Y-101357419D02*
X156380951Y-101357419D01*
X156095237Y-102357419D02*
X156095237Y-101357419D01*
X156714285Y-102357419D02*
X156714285Y-101357419D01*
X156714285Y-101357419D02*
X157095237Y-101357419D01*
X157095237Y-101357419D02*
X157190475Y-101405038D01*
X157190475Y-101405038D02*
X157238094Y-101452657D01*
X157238094Y-101452657D02*
X157285713Y-101547895D01*
X157285713Y-101547895D02*
X157285713Y-101690752D01*
X157285713Y-101690752D02*
X157238094Y-101785990D01*
X157238094Y-101785990D02*
X157190475Y-101833609D01*
X157190475Y-101833609D02*
X157095237Y-101881228D01*
X157095237Y-101881228D02*
X156714285Y-101881228D01*
X158142856Y-101690752D02*
X158142856Y-102357419D01*
X157904761Y-101309800D02*
X157666666Y-102024085D01*
X157666666Y-102024085D02*
X158285713Y-102024085D01*
X158857142Y-101357419D02*
X158952380Y-101357419D01*
X158952380Y-101357419D02*
X159047618Y-101405038D01*
X159047618Y-101405038D02*
X159095237Y-101452657D01*
X159095237Y-101452657D02*
X159142856Y-101547895D01*
X159142856Y-101547895D02*
X159190475Y-101738371D01*
X159190475Y-101738371D02*
X159190475Y-101976466D01*
X159190475Y-101976466D02*
X159142856Y-102166942D01*
X159142856Y-102166942D02*
X159095237Y-102262180D01*
X159095237Y-102262180D02*
X159047618Y-102309800D01*
X159047618Y-102309800D02*
X158952380Y-102357419D01*
X158952380Y-102357419D02*
X158857142Y-102357419D01*
X158857142Y-102357419D02*
X158761904Y-102309800D01*
X158761904Y-102309800D02*
X158714285Y-102262180D01*
X158714285Y-102262180D02*
X158666666Y-102166942D01*
X158666666Y-102166942D02*
X158619047Y-101976466D01*
X158619047Y-101976466D02*
X158619047Y-101738371D01*
X158619047Y-101738371D02*
X158666666Y-101547895D01*
X158666666Y-101547895D02*
X158714285Y-101452657D01*
X158714285Y-101452657D02*
X158761904Y-101405038D01*
X158761904Y-101405038D02*
X158857142Y-101357419D01*
X160095237Y-101357419D02*
X159619047Y-101357419D01*
X159619047Y-101357419D02*
X159571428Y-101833609D01*
X159571428Y-101833609D02*
X159619047Y-101785990D01*
X159619047Y-101785990D02*
X159714285Y-101738371D01*
X159714285Y-101738371D02*
X159952380Y-101738371D01*
X159952380Y-101738371D02*
X160047618Y-101785990D01*
X160047618Y-101785990D02*
X160095237Y-101833609D01*
X160095237Y-101833609D02*
X160142856Y-101928847D01*
X160142856Y-101928847D02*
X160142856Y-102166942D01*
X160142856Y-102166942D02*
X160095237Y-102262180D01*
X160095237Y-102262180D02*
X160047618Y-102309800D01*
X160047618Y-102309800D02*
X159952380Y-102357419D01*
X159952380Y-102357419D02*
X159714285Y-102357419D01*
X159714285Y-102357419D02*
X159619047Y-102309800D01*
X159619047Y-102309800D02*
X159571428Y-102262180D01*
X160999999Y-101357419D02*
X160809523Y-101357419D01*
X160809523Y-101357419D02*
X160714285Y-101405038D01*
X160714285Y-101405038D02*
X160666666Y-101452657D01*
X160666666Y-101452657D02*
X160571428Y-101595514D01*
X160571428Y-101595514D02*
X160523809Y-101785990D01*
X160523809Y-101785990D02*
X160523809Y-102166942D01*
X160523809Y-102166942D02*
X160571428Y-102262180D01*
X160571428Y-102262180D02*
X160619047Y-102309800D01*
X160619047Y-102309800D02*
X160714285Y-102357419D01*
X160714285Y-102357419D02*
X160904761Y-102357419D01*
X160904761Y-102357419D02*
X160999999Y-102309800D01*
X160999999Y-102309800D02*
X161047618Y-102262180D01*
X161047618Y-102262180D02*
X161095237Y-102166942D01*
X161095237Y-102166942D02*
X161095237Y-101928847D01*
X161095237Y-101928847D02*
X161047618Y-101833609D01*
X161047618Y-101833609D02*
X160999999Y-101785990D01*
X160999999Y-101785990D02*
X160904761Y-101738371D01*
X160904761Y-101738371D02*
X160714285Y-101738371D01*
X160714285Y-101738371D02*
X160619047Y-101785990D01*
X160619047Y-101785990D02*
X160571428Y-101833609D01*
X160571428Y-101833609D02*
X160523809Y-101928847D01*
X162285714Y-102357419D02*
X162285714Y-101357419D01*
X162285714Y-101357419D02*
X162619047Y-102071704D01*
X162619047Y-102071704D02*
X162952380Y-101357419D01*
X162952380Y-101357419D02*
X162952380Y-102357419D01*
X163571428Y-102357419D02*
X163476190Y-102309800D01*
X163476190Y-102309800D02*
X163428571Y-102262180D01*
X163428571Y-102262180D02*
X163380952Y-102166942D01*
X163380952Y-102166942D02*
X163380952Y-101881228D01*
X163380952Y-101881228D02*
X163428571Y-101785990D01*
X163428571Y-101785990D02*
X163476190Y-101738371D01*
X163476190Y-101738371D02*
X163571428Y-101690752D01*
X163571428Y-101690752D02*
X163714285Y-101690752D01*
X163714285Y-101690752D02*
X163809523Y-101738371D01*
X163809523Y-101738371D02*
X163857142Y-101785990D01*
X163857142Y-101785990D02*
X163904761Y-101881228D01*
X163904761Y-101881228D02*
X163904761Y-102166942D01*
X163904761Y-102166942D02*
X163857142Y-102262180D01*
X163857142Y-102262180D02*
X163809523Y-102309800D01*
X163809523Y-102309800D02*
X163714285Y-102357419D01*
X163714285Y-102357419D02*
X163571428Y-102357419D01*
X164761904Y-102357419D02*
X164761904Y-101357419D01*
X164761904Y-102309800D02*
X164666666Y-102357419D01*
X164666666Y-102357419D02*
X164476190Y-102357419D01*
X164476190Y-102357419D02*
X164380952Y-102309800D01*
X164380952Y-102309800D02*
X164333333Y-102262180D01*
X164333333Y-102262180D02*
X164285714Y-102166942D01*
X164285714Y-102166942D02*
X164285714Y-101881228D01*
X164285714Y-101881228D02*
X164333333Y-101785990D01*
X164333333Y-101785990D02*
X164380952Y-101738371D01*
X164380952Y-101738371D02*
X164476190Y-101690752D01*
X164476190Y-101690752D02*
X164666666Y-101690752D01*
X164666666Y-101690752D02*
X164761904Y-101738371D01*
X165666666Y-101690752D02*
X165666666Y-102357419D01*
X165238095Y-101690752D02*
X165238095Y-102214561D01*
X165238095Y-102214561D02*
X165285714Y-102309800D01*
X165285714Y-102309800D02*
X165380952Y-102357419D01*
X165380952Y-102357419D02*
X165523809Y-102357419D01*
X165523809Y-102357419D02*
X165619047Y-102309800D01*
X165619047Y-102309800D02*
X165666666Y-102262180D01*
X166285714Y-102357419D02*
X166190476Y-102309800D01*
X166190476Y-102309800D02*
X166142857Y-102214561D01*
X166142857Y-102214561D02*
X166142857Y-101357419D01*
X167047619Y-102309800D02*
X166952381Y-102357419D01*
X166952381Y-102357419D02*
X166761905Y-102357419D01*
X166761905Y-102357419D02*
X166666667Y-102309800D01*
X166666667Y-102309800D02*
X166619048Y-102214561D01*
X166619048Y-102214561D02*
X166619048Y-101833609D01*
X166619048Y-101833609D02*
X166666667Y-101738371D01*
X166666667Y-101738371D02*
X166761905Y-101690752D01*
X166761905Y-101690752D02*
X166952381Y-101690752D01*
X166952381Y-101690752D02*
X167047619Y-101738371D01*
X167047619Y-101738371D02*
X167095238Y-101833609D01*
X167095238Y-101833609D02*
X167095238Y-101928847D01*
X167095238Y-101928847D02*
X166619048Y-102024085D01*
X160148609Y-92162782D02*
X160196228Y-92019925D01*
X160196228Y-92019925D02*
X160243847Y-91972306D01*
X160243847Y-91972306D02*
X160339085Y-91924687D01*
X160339085Y-91924687D02*
X160481942Y-91924687D01*
X160481942Y-91924687D02*
X160577180Y-91972306D01*
X160577180Y-91972306D02*
X160624800Y-92019925D01*
X160624800Y-92019925D02*
X160672419Y-92115163D01*
X160672419Y-92115163D02*
X160672419Y-92496115D01*
X160672419Y-92496115D02*
X159672419Y-92496115D01*
X159672419Y-92496115D02*
X159672419Y-92162782D01*
X159672419Y-92162782D02*
X159720038Y-92067544D01*
X159720038Y-92067544D02*
X159767657Y-92019925D01*
X159767657Y-92019925D02*
X159862895Y-91972306D01*
X159862895Y-91972306D02*
X159958133Y-91972306D01*
X159958133Y-91972306D02*
X160053371Y-92019925D01*
X160053371Y-92019925D02*
X160100990Y-92067544D01*
X160100990Y-92067544D02*
X160148609Y-92162782D01*
X160148609Y-92162782D02*
X160148609Y-92496115D01*
X160291466Y-91496115D02*
X160291466Y-90734211D01*
X160672419Y-91115163D02*
X159910514Y-91115163D01*
X154072419Y-96905639D02*
X154072419Y-96715163D01*
X154072419Y-96715163D02*
X154120038Y-96619925D01*
X154120038Y-96619925D02*
X154215276Y-96524687D01*
X154215276Y-96524687D02*
X154405752Y-96477068D01*
X154405752Y-96477068D02*
X154739085Y-96477068D01*
X154739085Y-96477068D02*
X154929561Y-96524687D01*
X154929561Y-96524687D02*
X155024800Y-96619925D01*
X155024800Y-96619925D02*
X155072419Y-96715163D01*
X155072419Y-96715163D02*
X155072419Y-96905639D01*
X155072419Y-96905639D02*
X155024800Y-97000877D01*
X155024800Y-97000877D02*
X154929561Y-97096115D01*
X154929561Y-97096115D02*
X154739085Y-97143734D01*
X154739085Y-97143734D02*
X154405752Y-97143734D01*
X154405752Y-97143734D02*
X154215276Y-97096115D01*
X154215276Y-97096115D02*
X154120038Y-97000877D01*
X154120038Y-97000877D02*
X154072419Y-96905639D01*
X154072419Y-96048496D02*
X154881942Y-96048496D01*
X154881942Y-96048496D02*
X154977180Y-96000877D01*
X154977180Y-96000877D02*
X155024800Y-95953258D01*
X155024800Y-95953258D02*
X155072419Y-95858020D01*
X155072419Y-95858020D02*
X155072419Y-95667544D01*
X155072419Y-95667544D02*
X155024800Y-95572306D01*
X155024800Y-95572306D02*
X154977180Y-95524687D01*
X154977180Y-95524687D02*
X154881942Y-95477068D01*
X154881942Y-95477068D02*
X154072419Y-95477068D01*
X154072419Y-95143734D02*
X154072419Y-94572306D01*
X155072419Y-94858020D02*
X154072419Y-94858020D01*
X154691466Y-94238972D02*
X154691466Y-93477068D01*
X155072419Y-93858020D02*
X154310514Y-93858020D01*
X167872419Y-96905639D02*
X167872419Y-96715163D01*
X167872419Y-96715163D02*
X167920038Y-96619925D01*
X167920038Y-96619925D02*
X168015276Y-96524687D01*
X168015276Y-96524687D02*
X168205752Y-96477068D01*
X168205752Y-96477068D02*
X168539085Y-96477068D01*
X168539085Y-96477068D02*
X168729561Y-96524687D01*
X168729561Y-96524687D02*
X168824800Y-96619925D01*
X168824800Y-96619925D02*
X168872419Y-96715163D01*
X168872419Y-96715163D02*
X168872419Y-96905639D01*
X168872419Y-96905639D02*
X168824800Y-97000877D01*
X168824800Y-97000877D02*
X168729561Y-97096115D01*
X168729561Y-97096115D02*
X168539085Y-97143734D01*
X168539085Y-97143734D02*
X168205752Y-97143734D01*
X168205752Y-97143734D02*
X168015276Y-97096115D01*
X168015276Y-97096115D02*
X167920038Y-97000877D01*
X167920038Y-97000877D02*
X167872419Y-96905639D01*
X167872419Y-96048496D02*
X168681942Y-96048496D01*
X168681942Y-96048496D02*
X168777180Y-96000877D01*
X168777180Y-96000877D02*
X168824800Y-95953258D01*
X168824800Y-95953258D02*
X168872419Y-95858020D01*
X168872419Y-95858020D02*
X168872419Y-95667544D01*
X168872419Y-95667544D02*
X168824800Y-95572306D01*
X168824800Y-95572306D02*
X168777180Y-95524687D01*
X168777180Y-95524687D02*
X168681942Y-95477068D01*
X168681942Y-95477068D02*
X167872419Y-95477068D01*
X167872419Y-95143734D02*
X167872419Y-94572306D01*
X168872419Y-94858020D02*
X167872419Y-94858020D01*
X168491466Y-94238972D02*
X168491466Y-93477068D01*
X162748609Y-92162782D02*
X162796228Y-92019925D01*
X162796228Y-92019925D02*
X162843847Y-91972306D01*
X162843847Y-91972306D02*
X162939085Y-91924687D01*
X162939085Y-91924687D02*
X163081942Y-91924687D01*
X163081942Y-91924687D02*
X163177180Y-91972306D01*
X163177180Y-91972306D02*
X163224800Y-92019925D01*
X163224800Y-92019925D02*
X163272419Y-92115163D01*
X163272419Y-92115163D02*
X163272419Y-92496115D01*
X163272419Y-92496115D02*
X162272419Y-92496115D01*
X162272419Y-92496115D02*
X162272419Y-92162782D01*
X162272419Y-92162782D02*
X162320038Y-92067544D01*
X162320038Y-92067544D02*
X162367657Y-92019925D01*
X162367657Y-92019925D02*
X162462895Y-91972306D01*
X162462895Y-91972306D02*
X162558133Y-91972306D01*
X162558133Y-91972306D02*
X162653371Y-92019925D01*
X162653371Y-92019925D02*
X162700990Y-92067544D01*
X162700990Y-92067544D02*
X162748609Y-92162782D01*
X162748609Y-92162782D02*
X162748609Y-92496115D01*
X162891466Y-91496115D02*
X162891466Y-90734211D01*
X160571428Y-57907419D02*
X160238095Y-57431228D01*
X160000000Y-57907419D02*
X160000000Y-56907419D01*
X160000000Y-56907419D02*
X160380952Y-56907419D01*
X160380952Y-56907419D02*
X160476190Y-56955038D01*
X160476190Y-56955038D02*
X160523809Y-57002657D01*
X160523809Y-57002657D02*
X160571428Y-57097895D01*
X160571428Y-57097895D02*
X160571428Y-57240752D01*
X160571428Y-57240752D02*
X160523809Y-57335990D01*
X160523809Y-57335990D02*
X160476190Y-57383609D01*
X160476190Y-57383609D02*
X160380952Y-57431228D01*
X160380952Y-57431228D02*
X160000000Y-57431228D01*
X161000000Y-57907419D02*
X161000000Y-56907419D01*
X161000000Y-56907419D02*
X161380952Y-56907419D01*
X161380952Y-56907419D02*
X161476190Y-56955038D01*
X161476190Y-56955038D02*
X161523809Y-57002657D01*
X161523809Y-57002657D02*
X161571428Y-57097895D01*
X161571428Y-57097895D02*
X161571428Y-57240752D01*
X161571428Y-57240752D02*
X161523809Y-57335990D01*
X161523809Y-57335990D02*
X161476190Y-57383609D01*
X161476190Y-57383609D02*
X161380952Y-57431228D01*
X161380952Y-57431228D02*
X161000000Y-57431228D01*
X161952381Y-57002657D02*
X162000000Y-56955038D01*
X162000000Y-56955038D02*
X162095238Y-56907419D01*
X162095238Y-56907419D02*
X162333333Y-56907419D01*
X162333333Y-56907419D02*
X162428571Y-56955038D01*
X162428571Y-56955038D02*
X162476190Y-57002657D01*
X162476190Y-57002657D02*
X162523809Y-57097895D01*
X162523809Y-57097895D02*
X162523809Y-57193133D01*
X162523809Y-57193133D02*
X162476190Y-57335990D01*
X162476190Y-57335990D02*
X161904762Y-57907419D01*
X161904762Y-57907419D02*
X162523809Y-57907419D01*
X163142857Y-56907419D02*
X163238095Y-56907419D01*
X163238095Y-56907419D02*
X163333333Y-56955038D01*
X163333333Y-56955038D02*
X163380952Y-57002657D01*
X163380952Y-57002657D02*
X163428571Y-57097895D01*
X163428571Y-57097895D02*
X163476190Y-57288371D01*
X163476190Y-57288371D02*
X163476190Y-57526466D01*
X163476190Y-57526466D02*
X163428571Y-57716942D01*
X163428571Y-57716942D02*
X163380952Y-57812180D01*
X163380952Y-57812180D02*
X163333333Y-57859800D01*
X163333333Y-57859800D02*
X163238095Y-57907419D01*
X163238095Y-57907419D02*
X163142857Y-57907419D01*
X163142857Y-57907419D02*
X163047619Y-57859800D01*
X163047619Y-57859800D02*
X163000000Y-57812180D01*
X163000000Y-57812180D02*
X162952381Y-57716942D01*
X162952381Y-57716942D02*
X162904762Y-57526466D01*
X162904762Y-57526466D02*
X162904762Y-57288371D01*
X162904762Y-57288371D02*
X162952381Y-57097895D01*
X162952381Y-57097895D02*
X163000000Y-57002657D01*
X163000000Y-57002657D02*
X163047619Y-56955038D01*
X163047619Y-56955038D02*
X163142857Y-56907419D01*
X164333333Y-57240752D02*
X164333333Y-57907419D01*
X164095238Y-56859800D02*
X163857143Y-57574085D01*
X163857143Y-57574085D02*
X164476190Y-57574085D01*
X165047619Y-56907419D02*
X165142857Y-56907419D01*
X165142857Y-56907419D02*
X165238095Y-56955038D01*
X165238095Y-56955038D02*
X165285714Y-57002657D01*
X165285714Y-57002657D02*
X165333333Y-57097895D01*
X165333333Y-57097895D02*
X165380952Y-57288371D01*
X165380952Y-57288371D02*
X165380952Y-57526466D01*
X165380952Y-57526466D02*
X165333333Y-57716942D01*
X165333333Y-57716942D02*
X165285714Y-57812180D01*
X165285714Y-57812180D02*
X165238095Y-57859800D01*
X165238095Y-57859800D02*
X165142857Y-57907419D01*
X165142857Y-57907419D02*
X165047619Y-57907419D01*
X165047619Y-57907419D02*
X164952381Y-57859800D01*
X164952381Y-57859800D02*
X164904762Y-57812180D01*
X164904762Y-57812180D02*
X164857143Y-57716942D01*
X164857143Y-57716942D02*
X164809524Y-57526466D01*
X164809524Y-57526466D02*
X164809524Y-57288371D01*
X164809524Y-57288371D02*
X164857143Y-57097895D01*
X164857143Y-57097895D02*
X164904762Y-57002657D01*
X164904762Y-57002657D02*
X164952381Y-56955038D01*
X164952381Y-56955038D02*
X165047619Y-56907419D01*
X166428572Y-56907419D02*
X167000000Y-56907419D01*
X166714286Y-57907419D02*
X166714286Y-56907419D01*
X167333334Y-57907419D02*
X167333334Y-57240752D01*
X167333334Y-56907419D02*
X167285715Y-56955038D01*
X167285715Y-56955038D02*
X167333334Y-57002657D01*
X167333334Y-57002657D02*
X167380953Y-56955038D01*
X167380953Y-56955038D02*
X167333334Y-56907419D01*
X167333334Y-56907419D02*
X167333334Y-57002657D01*
X167809524Y-57240752D02*
X167809524Y-57907419D01*
X167809524Y-57335990D02*
X167857143Y-57288371D01*
X167857143Y-57288371D02*
X167952381Y-57240752D01*
X167952381Y-57240752D02*
X168095238Y-57240752D01*
X168095238Y-57240752D02*
X168190476Y-57288371D01*
X168190476Y-57288371D02*
X168238095Y-57383609D01*
X168238095Y-57383609D02*
X168238095Y-57907419D01*
X168619048Y-57240752D02*
X168857143Y-57907419D01*
X169095238Y-57240752D02*
X168857143Y-57907419D01*
X168857143Y-57907419D02*
X168761905Y-58145514D01*
X168761905Y-58145514D02*
X168714286Y-58193133D01*
X168714286Y-58193133D02*
X168619048Y-58240752D01*
X156457419Y-63903258D02*
X156433609Y-63950877D01*
X156433609Y-63950877D02*
X156433609Y-64022306D01*
X156433609Y-64022306D02*
X156457419Y-64093734D01*
X156457419Y-64093734D02*
X156505038Y-64141353D01*
X156505038Y-64141353D02*
X156552657Y-64165163D01*
X156552657Y-64165163D02*
X156647895Y-64188972D01*
X156647895Y-64188972D02*
X156719323Y-64188972D01*
X156719323Y-64188972D02*
X156814561Y-64165163D01*
X156814561Y-64165163D02*
X156862180Y-64141353D01*
X156862180Y-64141353D02*
X156909800Y-64093734D01*
X156909800Y-64093734D02*
X156933609Y-64022306D01*
X156933609Y-64022306D02*
X156933609Y-63974687D01*
X156933609Y-63974687D02*
X156909800Y-63903258D01*
X156909800Y-63903258D02*
X156885990Y-63879449D01*
X156885990Y-63879449D02*
X156719323Y-63879449D01*
X156719323Y-63879449D02*
X156719323Y-63974687D01*
X156933609Y-63665163D02*
X156433609Y-63665163D01*
X156433609Y-63665163D02*
X156933609Y-63379449D01*
X156933609Y-63379449D02*
X156433609Y-63379449D01*
X156933609Y-63141353D02*
X156433609Y-63141353D01*
X156433609Y-63141353D02*
X156433609Y-63022305D01*
X156433609Y-63022305D02*
X156457419Y-62950877D01*
X156457419Y-62950877D02*
X156505038Y-62903258D01*
X156505038Y-62903258D02*
X156552657Y-62879448D01*
X156552657Y-62879448D02*
X156647895Y-62855639D01*
X156647895Y-62855639D02*
X156719323Y-62855639D01*
X156719323Y-62855639D02*
X156814561Y-62879448D01*
X156814561Y-62879448D02*
X156862180Y-62903258D01*
X156862180Y-62903258D02*
X156909800Y-62950877D01*
X156909800Y-62950877D02*
X156933609Y-63022305D01*
X156933609Y-63022305D02*
X156933609Y-63141353D01*
X159033609Y-64212782D02*
X159033609Y-63903258D01*
X159033609Y-63903258D02*
X159224085Y-64069925D01*
X159224085Y-64069925D02*
X159224085Y-63998496D01*
X159224085Y-63998496D02*
X159247895Y-63950877D01*
X159247895Y-63950877D02*
X159271704Y-63927068D01*
X159271704Y-63927068D02*
X159319323Y-63903258D01*
X159319323Y-63903258D02*
X159438371Y-63903258D01*
X159438371Y-63903258D02*
X159485990Y-63927068D01*
X159485990Y-63927068D02*
X159509800Y-63950877D01*
X159509800Y-63950877D02*
X159533609Y-63998496D01*
X159533609Y-63998496D02*
X159533609Y-64141353D01*
X159533609Y-64141353D02*
X159509800Y-64188972D01*
X159509800Y-64188972D02*
X159485990Y-64212782D01*
X159485990Y-63688973D02*
X159509800Y-63665163D01*
X159509800Y-63665163D02*
X159533609Y-63688973D01*
X159533609Y-63688973D02*
X159509800Y-63712782D01*
X159509800Y-63712782D02*
X159485990Y-63688973D01*
X159485990Y-63688973D02*
X159533609Y-63688973D01*
X159033609Y-63498497D02*
X159033609Y-63188973D01*
X159033609Y-63188973D02*
X159224085Y-63355640D01*
X159224085Y-63355640D02*
X159224085Y-63284211D01*
X159224085Y-63284211D02*
X159247895Y-63236592D01*
X159247895Y-63236592D02*
X159271704Y-63212783D01*
X159271704Y-63212783D02*
X159319323Y-63188973D01*
X159319323Y-63188973D02*
X159438371Y-63188973D01*
X159438371Y-63188973D02*
X159485990Y-63212783D01*
X159485990Y-63212783D02*
X159509800Y-63236592D01*
X159509800Y-63236592D02*
X159533609Y-63284211D01*
X159533609Y-63284211D02*
X159533609Y-63427068D01*
X159533609Y-63427068D02*
X159509800Y-63474687D01*
X159509800Y-63474687D02*
X159485990Y-63498497D01*
X159033609Y-63046116D02*
X159533609Y-62879450D01*
X159533609Y-62879450D02*
X159033609Y-62712783D01*
X153733609Y-63827068D02*
X153733609Y-64065163D01*
X153733609Y-64065163D02*
X153971704Y-64088972D01*
X153971704Y-64088972D02*
X153947895Y-64065163D01*
X153947895Y-64065163D02*
X153924085Y-64017544D01*
X153924085Y-64017544D02*
X153924085Y-63898496D01*
X153924085Y-63898496D02*
X153947895Y-63850877D01*
X153947895Y-63850877D02*
X153971704Y-63827068D01*
X153971704Y-63827068D02*
X154019323Y-63803258D01*
X154019323Y-63803258D02*
X154138371Y-63803258D01*
X154138371Y-63803258D02*
X154185990Y-63827068D01*
X154185990Y-63827068D02*
X154209800Y-63850877D01*
X154209800Y-63850877D02*
X154233609Y-63898496D01*
X154233609Y-63898496D02*
X154233609Y-64017544D01*
X154233609Y-64017544D02*
X154209800Y-64065163D01*
X154209800Y-64065163D02*
X154185990Y-64088972D01*
X153733609Y-63660401D02*
X154233609Y-63493735D01*
X154233609Y-63493735D02*
X153733609Y-63327068D01*
X147557419Y-79038095D02*
X146557419Y-79038095D01*
X146557419Y-79038095D02*
X146557419Y-78800000D01*
X146557419Y-78800000D02*
X146605038Y-78657143D01*
X146605038Y-78657143D02*
X146700276Y-78561905D01*
X146700276Y-78561905D02*
X146795514Y-78514286D01*
X146795514Y-78514286D02*
X146985990Y-78466667D01*
X146985990Y-78466667D02*
X147128847Y-78466667D01*
X147128847Y-78466667D02*
X147319323Y-78514286D01*
X147319323Y-78514286D02*
X147414561Y-78561905D01*
X147414561Y-78561905D02*
X147509800Y-78657143D01*
X147509800Y-78657143D02*
X147557419Y-78800000D01*
X147557419Y-78800000D02*
X147557419Y-79038095D01*
X147462180Y-77466667D02*
X147509800Y-77514286D01*
X147509800Y-77514286D02*
X147557419Y-77657143D01*
X147557419Y-77657143D02*
X147557419Y-77752381D01*
X147557419Y-77752381D02*
X147509800Y-77895238D01*
X147509800Y-77895238D02*
X147414561Y-77990476D01*
X147414561Y-77990476D02*
X147319323Y-78038095D01*
X147319323Y-78038095D02*
X147128847Y-78085714D01*
X147128847Y-78085714D02*
X146985990Y-78085714D01*
X146985990Y-78085714D02*
X146795514Y-78038095D01*
X146795514Y-78038095D02*
X146700276Y-77990476D01*
X146700276Y-77990476D02*
X146605038Y-77895238D01*
X146605038Y-77895238D02*
X146557419Y-77752381D01*
X146557419Y-77752381D02*
X146557419Y-77657143D01*
X146557419Y-77657143D02*
X146605038Y-77514286D01*
X146605038Y-77514286D02*
X146652657Y-77466667D01*
X147033609Y-75942857D02*
X147081228Y-75800000D01*
X147081228Y-75800000D02*
X147128847Y-75752381D01*
X147128847Y-75752381D02*
X147224085Y-75704762D01*
X147224085Y-75704762D02*
X147366942Y-75704762D01*
X147366942Y-75704762D02*
X147462180Y-75752381D01*
X147462180Y-75752381D02*
X147509800Y-75800000D01*
X147509800Y-75800000D02*
X147557419Y-75895238D01*
X147557419Y-75895238D02*
X147557419Y-76276190D01*
X147557419Y-76276190D02*
X146557419Y-76276190D01*
X146557419Y-76276190D02*
X146557419Y-75942857D01*
X146557419Y-75942857D02*
X146605038Y-75847619D01*
X146605038Y-75847619D02*
X146652657Y-75800000D01*
X146652657Y-75800000D02*
X146747895Y-75752381D01*
X146747895Y-75752381D02*
X146843133Y-75752381D01*
X146843133Y-75752381D02*
X146938371Y-75800000D01*
X146938371Y-75800000D02*
X146985990Y-75847619D01*
X146985990Y-75847619D02*
X147033609Y-75942857D01*
X147033609Y-75942857D02*
X147033609Y-76276190D01*
X147557419Y-75133333D02*
X147509800Y-75228571D01*
X147509800Y-75228571D02*
X147462180Y-75276190D01*
X147462180Y-75276190D02*
X147366942Y-75323809D01*
X147366942Y-75323809D02*
X147081228Y-75323809D01*
X147081228Y-75323809D02*
X146985990Y-75276190D01*
X146985990Y-75276190D02*
X146938371Y-75228571D01*
X146938371Y-75228571D02*
X146890752Y-75133333D01*
X146890752Y-75133333D02*
X146890752Y-74990476D01*
X146890752Y-74990476D02*
X146938371Y-74895238D01*
X146938371Y-74895238D02*
X146985990Y-74847619D01*
X146985990Y-74847619D02*
X147081228Y-74800000D01*
X147081228Y-74800000D02*
X147366942Y-74800000D01*
X147366942Y-74800000D02*
X147462180Y-74847619D01*
X147462180Y-74847619D02*
X147509800Y-74895238D01*
X147509800Y-74895238D02*
X147557419Y-74990476D01*
X147557419Y-74990476D02*
X147557419Y-75133333D01*
X147557419Y-74228571D02*
X147509800Y-74323809D01*
X147509800Y-74323809D02*
X147462180Y-74371428D01*
X147462180Y-74371428D02*
X147366942Y-74419047D01*
X147366942Y-74419047D02*
X147081228Y-74419047D01*
X147081228Y-74419047D02*
X146985990Y-74371428D01*
X146985990Y-74371428D02*
X146938371Y-74323809D01*
X146938371Y-74323809D02*
X146890752Y-74228571D01*
X146890752Y-74228571D02*
X146890752Y-74085714D01*
X146890752Y-74085714D02*
X146938371Y-73990476D01*
X146938371Y-73990476D02*
X146985990Y-73942857D01*
X146985990Y-73942857D02*
X147081228Y-73895238D01*
X147081228Y-73895238D02*
X147366942Y-73895238D01*
X147366942Y-73895238D02*
X147462180Y-73942857D01*
X147462180Y-73942857D02*
X147509800Y-73990476D01*
X147509800Y-73990476D02*
X147557419Y-74085714D01*
X147557419Y-74085714D02*
X147557419Y-74228571D01*
X147509800Y-73514285D02*
X147557419Y-73419047D01*
X147557419Y-73419047D02*
X147557419Y-73228571D01*
X147557419Y-73228571D02*
X147509800Y-73133333D01*
X147509800Y-73133333D02*
X147414561Y-73085714D01*
X147414561Y-73085714D02*
X147366942Y-73085714D01*
X147366942Y-73085714D02*
X147271704Y-73133333D01*
X147271704Y-73133333D02*
X147224085Y-73228571D01*
X147224085Y-73228571D02*
X147224085Y-73371428D01*
X147224085Y-73371428D02*
X147176466Y-73466666D01*
X147176466Y-73466666D02*
X147081228Y-73514285D01*
X147081228Y-73514285D02*
X147033609Y-73514285D01*
X147033609Y-73514285D02*
X146938371Y-73466666D01*
X146938371Y-73466666D02*
X146890752Y-73371428D01*
X146890752Y-73371428D02*
X146890752Y-73228571D01*
X146890752Y-73228571D02*
X146938371Y-73133333D01*
X146890752Y-72799999D02*
X146890752Y-72419047D01*
X146557419Y-72657142D02*
X147414561Y-72657142D01*
X147414561Y-72657142D02*
X147509800Y-72609523D01*
X147509800Y-72609523D02*
X147557419Y-72514285D01*
X147557419Y-72514285D02*
X147557419Y-72419047D01*
X151622419Y-82446115D02*
X150622419Y-82446115D01*
X151622419Y-81969925D02*
X150622419Y-81969925D01*
X150622419Y-81969925D02*
X151622419Y-81398497D01*
X151622419Y-81398497D02*
X150622419Y-81398497D01*
X151241466Y-80922306D02*
X151241466Y-80160402D01*
X151622419Y-80541354D02*
X150860514Y-80541354D01*
X150622419Y-72255639D02*
X150622419Y-72065163D01*
X150622419Y-72065163D02*
X150670038Y-71969925D01*
X150670038Y-71969925D02*
X150765276Y-71874687D01*
X150765276Y-71874687D02*
X150955752Y-71827068D01*
X150955752Y-71827068D02*
X151289085Y-71827068D01*
X151289085Y-71827068D02*
X151479561Y-71874687D01*
X151479561Y-71874687D02*
X151574800Y-71969925D01*
X151574800Y-71969925D02*
X151622419Y-72065163D01*
X151622419Y-72065163D02*
X151622419Y-72255639D01*
X151622419Y-72255639D02*
X151574800Y-72350877D01*
X151574800Y-72350877D02*
X151479561Y-72446115D01*
X151479561Y-72446115D02*
X151289085Y-72493734D01*
X151289085Y-72493734D02*
X150955752Y-72493734D01*
X150955752Y-72493734D02*
X150765276Y-72446115D01*
X150765276Y-72446115D02*
X150670038Y-72350877D01*
X150670038Y-72350877D02*
X150622419Y-72255639D01*
X150622419Y-71398496D02*
X151431942Y-71398496D01*
X151431942Y-71398496D02*
X151527180Y-71350877D01*
X151527180Y-71350877D02*
X151574800Y-71303258D01*
X151574800Y-71303258D02*
X151622419Y-71208020D01*
X151622419Y-71208020D02*
X151622419Y-71017544D01*
X151622419Y-71017544D02*
X151574800Y-70922306D01*
X151574800Y-70922306D02*
X151527180Y-70874687D01*
X151527180Y-70874687D02*
X151431942Y-70827068D01*
X151431942Y-70827068D02*
X150622419Y-70827068D01*
X150622419Y-70493734D02*
X150622419Y-69922306D01*
X151622419Y-70208020D02*
X150622419Y-70208020D01*
X151241466Y-69588972D02*
X151241466Y-68827068D01*
X142372419Y-72255639D02*
X142372419Y-72065163D01*
X142372419Y-72065163D02*
X142420038Y-71969925D01*
X142420038Y-71969925D02*
X142515276Y-71874687D01*
X142515276Y-71874687D02*
X142705752Y-71827068D01*
X142705752Y-71827068D02*
X143039085Y-71827068D01*
X143039085Y-71827068D02*
X143229561Y-71874687D01*
X143229561Y-71874687D02*
X143324800Y-71969925D01*
X143324800Y-71969925D02*
X143372419Y-72065163D01*
X143372419Y-72065163D02*
X143372419Y-72255639D01*
X143372419Y-72255639D02*
X143324800Y-72350877D01*
X143324800Y-72350877D02*
X143229561Y-72446115D01*
X143229561Y-72446115D02*
X143039085Y-72493734D01*
X143039085Y-72493734D02*
X142705752Y-72493734D01*
X142705752Y-72493734D02*
X142515276Y-72446115D01*
X142515276Y-72446115D02*
X142420038Y-72350877D01*
X142420038Y-72350877D02*
X142372419Y-72255639D01*
X142372419Y-71398496D02*
X143181942Y-71398496D01*
X143181942Y-71398496D02*
X143277180Y-71350877D01*
X143277180Y-71350877D02*
X143324800Y-71303258D01*
X143324800Y-71303258D02*
X143372419Y-71208020D01*
X143372419Y-71208020D02*
X143372419Y-71017544D01*
X143372419Y-71017544D02*
X143324800Y-70922306D01*
X143324800Y-70922306D02*
X143277180Y-70874687D01*
X143277180Y-70874687D02*
X143181942Y-70827068D01*
X143181942Y-70827068D02*
X142372419Y-70827068D01*
X142372419Y-70493734D02*
X142372419Y-69922306D01*
X143372419Y-70208020D02*
X142372419Y-70208020D01*
X142991466Y-69588972D02*
X142991466Y-68827068D01*
X143372419Y-69208020D02*
X142610514Y-69208020D01*
X148122419Y-82446115D02*
X147122419Y-82446115D01*
X148122419Y-81969925D02*
X147122419Y-81969925D01*
X147122419Y-81969925D02*
X148122419Y-81398497D01*
X148122419Y-81398497D02*
X147122419Y-81398497D01*
X147741466Y-80922306D02*
X147741466Y-80160402D01*
X168142693Y-76970038D02*
X168047455Y-76922419D01*
X168047455Y-76922419D02*
X167904598Y-76922419D01*
X167904598Y-76922419D02*
X167761741Y-76970038D01*
X167761741Y-76970038D02*
X167666503Y-77065276D01*
X167666503Y-77065276D02*
X167618884Y-77160514D01*
X167618884Y-77160514D02*
X167571265Y-77350990D01*
X167571265Y-77350990D02*
X167571265Y-77493847D01*
X167571265Y-77493847D02*
X167618884Y-77684323D01*
X167618884Y-77684323D02*
X167666503Y-77779561D01*
X167666503Y-77779561D02*
X167761741Y-77874800D01*
X167761741Y-77874800D02*
X167904598Y-77922419D01*
X167904598Y-77922419D02*
X167999836Y-77922419D01*
X167999836Y-77922419D02*
X168142693Y-77874800D01*
X168142693Y-77874800D02*
X168190312Y-77827180D01*
X168190312Y-77827180D02*
X168190312Y-77493847D01*
X168190312Y-77493847D02*
X167999836Y-77493847D01*
X168571265Y-77636704D02*
X169047455Y-77636704D01*
X168476027Y-77922419D02*
X168809360Y-76922419D01*
X168809360Y-76922419D02*
X169142693Y-77922419D01*
X169476027Y-77922419D02*
X169476027Y-76922419D01*
X169952217Y-77922419D02*
X169952217Y-76922419D01*
X169952217Y-76922419D02*
X170523645Y-77922419D01*
X170523645Y-77922419D02*
X170523645Y-76922419D01*
X168376027Y-69322419D02*
X168709360Y-70322419D01*
X168709360Y-70322419D02*
X169042693Y-69322419D01*
X169376027Y-70322419D02*
X169376027Y-69322419D01*
X169852217Y-70322419D02*
X169852217Y-69322419D01*
X169852217Y-69322419D02*
X170423645Y-70322419D01*
X170423645Y-70322419D02*
X170423645Y-69322419D01*
X168971265Y-75374800D02*
X169114122Y-75422419D01*
X169114122Y-75422419D02*
X169352217Y-75422419D01*
X169352217Y-75422419D02*
X169447455Y-75374800D01*
X169447455Y-75374800D02*
X169495074Y-75327180D01*
X169495074Y-75327180D02*
X169542693Y-75231942D01*
X169542693Y-75231942D02*
X169542693Y-75136704D01*
X169542693Y-75136704D02*
X169495074Y-75041466D01*
X169495074Y-75041466D02*
X169447455Y-74993847D01*
X169447455Y-74993847D02*
X169352217Y-74946228D01*
X169352217Y-74946228D02*
X169161741Y-74898609D01*
X169161741Y-74898609D02*
X169066503Y-74850990D01*
X169066503Y-74850990D02*
X169018884Y-74803371D01*
X169018884Y-74803371D02*
X168971265Y-74708133D01*
X168971265Y-74708133D02*
X168971265Y-74612895D01*
X168971265Y-74612895D02*
X169018884Y-74517657D01*
X169018884Y-74517657D02*
X169066503Y-74470038D01*
X169066503Y-74470038D02*
X169161741Y-74422419D01*
X169161741Y-74422419D02*
X169399836Y-74422419D01*
X169399836Y-74422419D02*
X169542693Y-74470038D01*
X169971265Y-75422419D02*
X169971265Y-74422419D01*
X169971265Y-74422419D02*
X170209360Y-74422419D01*
X170209360Y-74422419D02*
X170352217Y-74470038D01*
X170352217Y-74470038D02*
X170447455Y-74565276D01*
X170447455Y-74565276D02*
X170495074Y-74660514D01*
X170495074Y-74660514D02*
X170542693Y-74850990D01*
X170542693Y-74850990D02*
X170542693Y-74993847D01*
X170542693Y-74993847D02*
X170495074Y-75184323D01*
X170495074Y-75184323D02*
X170447455Y-75279561D01*
X170447455Y-75279561D02*
X170352217Y-75374800D01*
X170352217Y-75374800D02*
X170209360Y-75422419D01*
X170209360Y-75422419D02*
X169971265Y-75422419D01*
X168442693Y-71970038D02*
X168347455Y-71922419D01*
X168347455Y-71922419D02*
X168204598Y-71922419D01*
X168204598Y-71922419D02*
X168061741Y-71970038D01*
X168061741Y-71970038D02*
X167966503Y-72065276D01*
X167966503Y-72065276D02*
X167918884Y-72160514D01*
X167918884Y-72160514D02*
X167871265Y-72350990D01*
X167871265Y-72350990D02*
X167871265Y-72493847D01*
X167871265Y-72493847D02*
X167918884Y-72684323D01*
X167918884Y-72684323D02*
X167966503Y-72779561D01*
X167966503Y-72779561D02*
X168061741Y-72874800D01*
X168061741Y-72874800D02*
X168204598Y-72922419D01*
X168204598Y-72922419D02*
X168299836Y-72922419D01*
X168299836Y-72922419D02*
X168442693Y-72874800D01*
X168442693Y-72874800D02*
X168490312Y-72827180D01*
X168490312Y-72827180D02*
X168490312Y-72493847D01*
X168490312Y-72493847D02*
X168299836Y-72493847D01*
X168918884Y-72922419D02*
X168918884Y-71922419D01*
X168918884Y-71922419D02*
X169490312Y-72922419D01*
X169490312Y-72922419D02*
X169490312Y-71922419D01*
X169966503Y-72922419D02*
X169966503Y-71922419D01*
X169966503Y-71922419D02*
X170204598Y-71922419D01*
X170204598Y-71922419D02*
X170347455Y-71970038D01*
X170347455Y-71970038D02*
X170442693Y-72065276D01*
X170442693Y-72065276D02*
X170490312Y-72160514D01*
X170490312Y-72160514D02*
X170537931Y-72350990D01*
X170537931Y-72350990D02*
X170537931Y-72493847D01*
X170537931Y-72493847D02*
X170490312Y-72684323D01*
X170490312Y-72684323D02*
X170442693Y-72779561D01*
X170442693Y-72779561D02*
X170347455Y-72874800D01*
X170347455Y-72874800D02*
X170204598Y-72922419D01*
X170204598Y-72922419D02*
X169966503Y-72922419D01*
X168418884Y-80422419D02*
X168418884Y-79422419D01*
X168418884Y-79422419D02*
X168656979Y-79422419D01*
X168656979Y-79422419D02*
X168799836Y-79470038D01*
X168799836Y-79470038D02*
X168895074Y-79565276D01*
X168895074Y-79565276D02*
X168942693Y-79660514D01*
X168942693Y-79660514D02*
X168990312Y-79850990D01*
X168990312Y-79850990D02*
X168990312Y-79993847D01*
X168990312Y-79993847D02*
X168942693Y-80184323D01*
X168942693Y-80184323D02*
X168895074Y-80279561D01*
X168895074Y-80279561D02*
X168799836Y-80374800D01*
X168799836Y-80374800D02*
X168656979Y-80422419D01*
X168656979Y-80422419D02*
X168418884Y-80422419D01*
X169418884Y-80422419D02*
X169418884Y-79422419D01*
X169895074Y-80422419D02*
X169895074Y-79422419D01*
X169895074Y-79422419D02*
X170466502Y-80422419D01*
X170466502Y-80422419D02*
X170466502Y-79422419D01*
X168595074Y-85522419D02*
X168118884Y-85522419D01*
X168118884Y-85522419D02*
X168118884Y-84522419D01*
X169499836Y-85522419D02*
X169166503Y-85046228D01*
X168928408Y-85522419D02*
X168928408Y-84522419D01*
X168928408Y-84522419D02*
X169309360Y-84522419D01*
X169309360Y-84522419D02*
X169404598Y-84570038D01*
X169404598Y-84570038D02*
X169452217Y-84617657D01*
X169452217Y-84617657D02*
X169499836Y-84712895D01*
X169499836Y-84712895D02*
X169499836Y-84855752D01*
X169499836Y-84855752D02*
X169452217Y-84950990D01*
X169452217Y-84950990D02*
X169404598Y-84998609D01*
X169404598Y-84998609D02*
X169309360Y-85046228D01*
X169309360Y-85046228D02*
X168928408Y-85046228D01*
X170499836Y-85427180D02*
X170452217Y-85474800D01*
X170452217Y-85474800D02*
X170309360Y-85522419D01*
X170309360Y-85522419D02*
X170214122Y-85522419D01*
X170214122Y-85522419D02*
X170071265Y-85474800D01*
X170071265Y-85474800D02*
X169976027Y-85379561D01*
X169976027Y-85379561D02*
X169928408Y-85284323D01*
X169928408Y-85284323D02*
X169880789Y-85093847D01*
X169880789Y-85093847D02*
X169880789Y-84950990D01*
X169880789Y-84950990D02*
X169928408Y-84760514D01*
X169928408Y-84760514D02*
X169976027Y-84665276D01*
X169976027Y-84665276D02*
X170071265Y-84570038D01*
X170071265Y-84570038D02*
X170214122Y-84522419D01*
X170214122Y-84522419D02*
X170309360Y-84522419D01*
X170309360Y-84522419D02*
X170452217Y-84570038D01*
X170452217Y-84570038D02*
X170499836Y-84617657D01*
X164487419Y-81046115D02*
X163487419Y-81046115D01*
X163487419Y-81046115D02*
X164201704Y-80712782D01*
X164201704Y-80712782D02*
X163487419Y-80379449D01*
X163487419Y-80379449D02*
X164487419Y-80379449D01*
X164201704Y-79950877D02*
X164201704Y-79474687D01*
X164487419Y-80046115D02*
X163487419Y-79712782D01*
X163487419Y-79712782D02*
X164487419Y-79379449D01*
X163487419Y-79141353D02*
X164487419Y-78474687D01*
X163487419Y-78474687D02*
X164487419Y-79141353D01*
X164487419Y-78046115D02*
X164487419Y-77855639D01*
X164487419Y-77855639D02*
X164439800Y-77760401D01*
X164439800Y-77760401D02*
X164392180Y-77712782D01*
X164392180Y-77712782D02*
X164249323Y-77617544D01*
X164249323Y-77617544D02*
X164058847Y-77569925D01*
X164058847Y-77569925D02*
X163677895Y-77569925D01*
X163677895Y-77569925D02*
X163582657Y-77617544D01*
X163582657Y-77617544D02*
X163535038Y-77665163D01*
X163535038Y-77665163D02*
X163487419Y-77760401D01*
X163487419Y-77760401D02*
X163487419Y-77950877D01*
X163487419Y-77950877D02*
X163535038Y-78046115D01*
X163535038Y-78046115D02*
X163582657Y-78093734D01*
X163582657Y-78093734D02*
X163677895Y-78141353D01*
X163677895Y-78141353D02*
X163915990Y-78141353D01*
X163915990Y-78141353D02*
X164011228Y-78093734D01*
X164011228Y-78093734D02*
X164058847Y-78046115D01*
X164058847Y-78046115D02*
X164106466Y-77950877D01*
X164106466Y-77950877D02*
X164106466Y-77760401D01*
X164106466Y-77760401D02*
X164058847Y-77665163D01*
X164058847Y-77665163D02*
X164011228Y-77617544D01*
X164011228Y-77617544D02*
X163915990Y-77569925D01*
X163915990Y-76998496D02*
X163868371Y-77093734D01*
X163868371Y-77093734D02*
X163820752Y-77141353D01*
X163820752Y-77141353D02*
X163725514Y-77188972D01*
X163725514Y-77188972D02*
X163677895Y-77188972D01*
X163677895Y-77188972D02*
X163582657Y-77141353D01*
X163582657Y-77141353D02*
X163535038Y-77093734D01*
X163535038Y-77093734D02*
X163487419Y-76998496D01*
X163487419Y-76998496D02*
X163487419Y-76808020D01*
X163487419Y-76808020D02*
X163535038Y-76712782D01*
X163535038Y-76712782D02*
X163582657Y-76665163D01*
X163582657Y-76665163D02*
X163677895Y-76617544D01*
X163677895Y-76617544D02*
X163725514Y-76617544D01*
X163725514Y-76617544D02*
X163820752Y-76665163D01*
X163820752Y-76665163D02*
X163868371Y-76712782D01*
X163868371Y-76712782D02*
X163915990Y-76808020D01*
X163915990Y-76808020D02*
X163915990Y-76998496D01*
X163915990Y-76998496D02*
X163963609Y-77093734D01*
X163963609Y-77093734D02*
X164011228Y-77141353D01*
X164011228Y-77141353D02*
X164106466Y-77188972D01*
X164106466Y-77188972D02*
X164296942Y-77188972D01*
X164296942Y-77188972D02*
X164392180Y-77141353D01*
X164392180Y-77141353D02*
X164439800Y-77093734D01*
X164439800Y-77093734D02*
X164487419Y-76998496D01*
X164487419Y-76998496D02*
X164487419Y-76808020D01*
X164487419Y-76808020D02*
X164439800Y-76712782D01*
X164439800Y-76712782D02*
X164392180Y-76665163D01*
X164392180Y-76665163D02*
X164296942Y-76617544D01*
X164296942Y-76617544D02*
X164106466Y-76617544D01*
X164106466Y-76617544D02*
X164011228Y-76665163D01*
X164011228Y-76665163D02*
X163963609Y-76712782D01*
X163963609Y-76712782D02*
X163915990Y-76808020D01*
X163487419Y-76284210D02*
X163487419Y-75665163D01*
X163487419Y-75665163D02*
X163868371Y-75998496D01*
X163868371Y-75998496D02*
X163868371Y-75855639D01*
X163868371Y-75855639D02*
X163915990Y-75760401D01*
X163915990Y-75760401D02*
X163963609Y-75712782D01*
X163963609Y-75712782D02*
X164058847Y-75665163D01*
X164058847Y-75665163D02*
X164296942Y-75665163D01*
X164296942Y-75665163D02*
X164392180Y-75712782D01*
X164392180Y-75712782D02*
X164439800Y-75760401D01*
X164439800Y-75760401D02*
X164487419Y-75855639D01*
X164487419Y-75855639D02*
X164487419Y-76141353D01*
X164487419Y-76141353D02*
X164439800Y-76236591D01*
X164439800Y-76236591D02*
X164392180Y-76284210D01*
X163487419Y-74760401D02*
X163487419Y-75236591D01*
X163487419Y-75236591D02*
X163963609Y-75284210D01*
X163963609Y-75284210D02*
X163915990Y-75236591D01*
X163915990Y-75236591D02*
X163868371Y-75141353D01*
X163868371Y-75141353D02*
X163868371Y-74903258D01*
X163868371Y-74903258D02*
X163915990Y-74808020D01*
X163915990Y-74808020D02*
X163963609Y-74760401D01*
X163963609Y-74760401D02*
X164058847Y-74712782D01*
X164058847Y-74712782D02*
X164296942Y-74712782D01*
X164296942Y-74712782D02*
X164392180Y-74760401D01*
X164392180Y-74760401D02*
X164439800Y-74808020D01*
X164439800Y-74808020D02*
X164487419Y-74903258D01*
X164487419Y-74903258D02*
X164487419Y-75141353D01*
X164487419Y-75141353D02*
X164439800Y-75236591D01*
X164439800Y-75236591D02*
X164392180Y-75284210D01*
X163487419Y-74379448D02*
X163487419Y-73712782D01*
X163487419Y-73712782D02*
X164487419Y-74141353D01*
X164201704Y-73379448D02*
X164201704Y-72903258D01*
X164487419Y-73474686D02*
X163487419Y-73141353D01*
X163487419Y-73141353D02*
X164487419Y-72808020D01*
X167452217Y-82398609D02*
X167595074Y-82446228D01*
X167595074Y-82446228D02*
X167642693Y-82493847D01*
X167642693Y-82493847D02*
X167690312Y-82589085D01*
X167690312Y-82589085D02*
X167690312Y-82731942D01*
X167690312Y-82731942D02*
X167642693Y-82827180D01*
X167642693Y-82827180D02*
X167595074Y-82874800D01*
X167595074Y-82874800D02*
X167499836Y-82922419D01*
X167499836Y-82922419D02*
X167118884Y-82922419D01*
X167118884Y-82922419D02*
X167118884Y-81922419D01*
X167118884Y-81922419D02*
X167452217Y-81922419D01*
X167452217Y-81922419D02*
X167547455Y-81970038D01*
X167547455Y-81970038D02*
X167595074Y-82017657D01*
X167595074Y-82017657D02*
X167642693Y-82112895D01*
X167642693Y-82112895D02*
X167642693Y-82208133D01*
X167642693Y-82208133D02*
X167595074Y-82303371D01*
X167595074Y-82303371D02*
X167547455Y-82350990D01*
X167547455Y-82350990D02*
X167452217Y-82398609D01*
X167452217Y-82398609D02*
X167118884Y-82398609D01*
X168690312Y-82827180D02*
X168642693Y-82874800D01*
X168642693Y-82874800D02*
X168499836Y-82922419D01*
X168499836Y-82922419D02*
X168404598Y-82922419D01*
X168404598Y-82922419D02*
X168261741Y-82874800D01*
X168261741Y-82874800D02*
X168166503Y-82779561D01*
X168166503Y-82779561D02*
X168118884Y-82684323D01*
X168118884Y-82684323D02*
X168071265Y-82493847D01*
X168071265Y-82493847D02*
X168071265Y-82350990D01*
X168071265Y-82350990D02*
X168118884Y-82160514D01*
X168118884Y-82160514D02*
X168166503Y-82065276D01*
X168166503Y-82065276D02*
X168261741Y-81970038D01*
X168261741Y-81970038D02*
X168404598Y-81922419D01*
X168404598Y-81922419D02*
X168499836Y-81922419D01*
X168499836Y-81922419D02*
X168642693Y-81970038D01*
X168642693Y-81970038D02*
X168690312Y-82017657D01*
X169595074Y-82922419D02*
X169118884Y-82922419D01*
X169118884Y-82922419D02*
X169118884Y-81922419D01*
X169928408Y-82922419D02*
X169928408Y-81922419D01*
X170499836Y-82922419D02*
X170071265Y-82350990D01*
X170499836Y-81922419D02*
X169928408Y-82493847D01*
D11*
G36*
X179766461Y-106350000D02*
G01*
X179766461Y-106604000D01*
X178535538Y-106604000D01*
X177304615Y-106604000D01*
X177304615Y-107092462D01*
X177304615Y-107580923D01*
X178535538Y-107580923D01*
X179766461Y-107580923D01*
X179766461Y-107815385D01*
X179766461Y-108049846D01*
X177304615Y-108049846D01*
X174842769Y-108049846D01*
X174842769Y-107326923D01*
X174842769Y-106604000D01*
X175096769Y-106604000D01*
X175350769Y-106604000D01*
X175350769Y-107092462D01*
X175350769Y-107580923D01*
X176093231Y-107580923D01*
X176835692Y-107580923D01*
X176835692Y-107092462D01*
X176835692Y-106604000D01*
X176093231Y-106604000D01*
X175350769Y-106604000D01*
X175350769Y-106350000D01*
X175350769Y-106096000D01*
X177558615Y-106096000D01*
X179766461Y-106096000D01*
X179766461Y-106350000D01*
G37*
G36*
X179766461Y-103419231D02*
G01*
X179766461Y-103673231D01*
X178789538Y-103673231D01*
X177812615Y-103673231D01*
X177812615Y-103907692D01*
X177812615Y-104142154D01*
X177558615Y-104142154D01*
X177304615Y-104142154D01*
X177304615Y-104396154D01*
X177304615Y-104650154D01*
X178535538Y-104650154D01*
X179766461Y-104650154D01*
X179766461Y-104884616D01*
X179766461Y-105119077D01*
X177304615Y-105119077D01*
X174842769Y-105119077D01*
X174842769Y-104884616D01*
X174842769Y-104650154D01*
X175839231Y-104650154D01*
X176835692Y-104650154D01*
X176835692Y-104396154D01*
X176835692Y-104142154D01*
X177070154Y-104142154D01*
X177304615Y-104142154D01*
X177304615Y-103907692D01*
X177304615Y-103673231D01*
X176073692Y-103673231D01*
X174842769Y-103673231D01*
X174842769Y-103419231D01*
X174842769Y-103165231D01*
X177304615Y-103165231D01*
X179766461Y-103165231D01*
X179766461Y-103419231D01*
G37*
G36*
X175350769Y-101230923D02*
G01*
X175350769Y-101719385D01*
X177304615Y-101719385D01*
X179258461Y-101719385D01*
X179258461Y-101230923D01*
X179258461Y-100742462D01*
X179512461Y-100742462D01*
X179766461Y-100742462D01*
X179766461Y-101465385D01*
X179766461Y-102188308D01*
X177304615Y-102188308D01*
X174842769Y-102188308D01*
X174842769Y-101465385D01*
X174842769Y-100742462D01*
X175096769Y-100742462D01*
X175350769Y-100742462D01*
X175350769Y-101230923D01*
G37*
G36*
X179258461Y-100488462D02*
G01*
X179258461Y-100742462D01*
X177304615Y-100742462D01*
X175350769Y-100742462D01*
X175350769Y-100488462D01*
X175350769Y-100234462D01*
X177304615Y-100234462D01*
X179258461Y-100234462D01*
X179258461Y-100488462D01*
G37*
G36*
X175350769Y-98300154D02*
G01*
X175350769Y-98788616D01*
X175839231Y-98788616D01*
X176327692Y-98788616D01*
X176327692Y-98300154D01*
X176327692Y-97811692D01*
X176581692Y-97811692D01*
X176835692Y-97811692D01*
X176835692Y-98300154D01*
X176835692Y-98788616D01*
X178301077Y-98788616D01*
X179766461Y-98788616D01*
X179766461Y-99023077D01*
X179766461Y-99257539D01*
X177304615Y-99257539D01*
X174842769Y-99257539D01*
X174842769Y-98534616D01*
X174842769Y-97811692D01*
X175096769Y-97811692D01*
X175350769Y-97811692D01*
X175350769Y-98300154D01*
G37*
G36*
X176327692Y-97557692D02*
G01*
X176327692Y-97811692D01*
X175839231Y-97811692D01*
X175350769Y-97811692D01*
X175350769Y-97557692D01*
X175350769Y-97303692D01*
X175839231Y-97303692D01*
X176327692Y-97303692D01*
X176327692Y-97557692D01*
G37*
G36*
X179766461Y-97557692D02*
G01*
X179766461Y-97811692D01*
X178301077Y-97811692D01*
X176835692Y-97811692D01*
X176835692Y-97557692D01*
X176835692Y-97303692D01*
X178301077Y-97303692D01*
X179766461Y-97303692D01*
X179766461Y-97557692D01*
G37*
G36*
X179512461Y-92927077D02*
G01*
X179766461Y-92927077D01*
X179766461Y-94392462D01*
X179766461Y-95857846D01*
X179512461Y-95857846D01*
X179258461Y-95857846D01*
X179258461Y-96346308D01*
X179258461Y-96834769D01*
X179024000Y-96834769D01*
X178789538Y-96834769D01*
X178789538Y-96346308D01*
X178789538Y-95857846D01*
X179024000Y-95857846D01*
X179258461Y-95857846D01*
X179258461Y-94392462D01*
X179258461Y-92927077D01*
X179512461Y-92927077D01*
G37*
G36*
X179258461Y-92438616D02*
G01*
X179258461Y-92927077D01*
X179024000Y-92927077D01*
X178789538Y-92927077D01*
X178789538Y-92438616D01*
X178789538Y-91950154D01*
X179024000Y-91950154D01*
X179258461Y-91950154D01*
X179258461Y-92438616D01*
G37*
G36*
X178281538Y-95115385D02*
G01*
X178281538Y-95349846D01*
X176562154Y-95349846D01*
X174842769Y-95349846D01*
X174842769Y-95115385D01*
X174842769Y-94880923D01*
X176562154Y-94880923D01*
X178281538Y-94880923D01*
X178281538Y-95115385D01*
G37*
G36*
X178281538Y-93650000D02*
G01*
X178281538Y-93904000D01*
X176562154Y-93904000D01*
X174842769Y-93904000D01*
X174842769Y-93650000D01*
X174842769Y-93396000D01*
X176562154Y-93396000D01*
X178281538Y-93396000D01*
X178281538Y-93650000D01*
G37*
D10*
X170300000Y-115900000D02*
X152700000Y-115900000D01*
X152700000Y-87900000D01*
X170300000Y-87900000D01*
X170300000Y-115900000D01*
X155700000Y-42100000D02*
X167300000Y-42100000D01*
X167300000Y-44900000D01*
X155700000Y-44900000D01*
X155700000Y-42100000D01*
X141800000Y-113550000D02*
X144400000Y-113550000D01*
X144400000Y-103050000D01*
X141800000Y-103050000D01*
X141800000Y-113550000D01*
X152700000Y-48400000D02*
X176300000Y-48400000D01*
X176300000Y-66500000D01*
X152700000Y-66500000D01*
X152700000Y-48400000D01*
X152500000Y-64700000D02*
X141700000Y-64700000D01*
X141700000Y-87000000D01*
X152500000Y-87000000D01*
X152500000Y-64700000D01*
D12*
X155090000Y-86330000D02*
X155090000Y-68550000D01*
X174140000Y-86330000D02*
X155090000Y-86330000D01*
X160615000Y-78690000D02*
X160615000Y-79690000D01*
X160615000Y-76190000D02*
X160615000Y-75190000D01*
X160115000Y-75690000D02*
X161115000Y-75690000D01*
X155090000Y-68550000D02*
X174140000Y-68550000D01*
X174140000Y-68550000D02*
X174140000Y-86330000D01*
%LPC*%
D13*
X167100000Y-104200000D03*
X171900000Y-104200000D03*
D14*
X154500000Y-91700000D03*
X158000000Y-91700000D03*
X165000000Y-91700000D03*
X168500000Y-91700000D03*
X154400000Y-114400000D03*
X168600000Y-114400000D03*
D15*
X166000000Y-43500000D03*
X163000000Y-43500000D03*
X160000000Y-43500000D03*
X157000000Y-43500000D03*
X143100000Y-104300000D03*
X143100000Y-108300000D03*
X143100000Y-112300000D03*
D16*
X154100000Y-65400000D03*
X156700000Y-65400000D03*
X159300000Y-65400000D03*
X161900000Y-65400000D03*
X164500000Y-65400000D03*
X167100000Y-65400000D03*
X169700000Y-65400000D03*
X172300000Y-65400000D03*
X174900000Y-65400000D03*
D17*
X175150000Y-62650000D03*
X175150000Y-60050000D03*
X175150000Y-57450000D03*
X175150000Y-54850000D03*
X175150000Y-52250000D03*
D16*
X174900000Y-49500000D03*
X172300000Y-49500000D03*
X169700000Y-49500000D03*
X167100000Y-49500000D03*
X164500000Y-49500000D03*
X161900000Y-49500000D03*
X159300000Y-49500000D03*
X156700000Y-49500000D03*
X154100000Y-49500000D03*
D18*
X147700000Y-84900000D03*
X151200000Y-84900000D03*
X143000000Y-66700000D03*
X151200000Y-66700000D03*
D13*
X159100000Y-96200000D03*
X163900000Y-96200000D03*
X159100000Y-112200000D03*
X163900000Y-112200000D03*
X151100000Y-104200000D03*
X155900000Y-104200000D03*
X159100000Y-104200000D03*
X163900000Y-104200000D03*
D19*
X171600000Y-69820000D03*
X171600000Y-72360000D03*
X171600000Y-74900000D03*
X171600000Y-77440000D03*
X171600000Y-79980000D03*
X171600000Y-82520000D03*
X171600000Y-85060000D03*
X158646000Y-79240000D03*
X158646000Y-75740000D03*
%LPD*%
M02*
