M48
; DRILL file {KiCad 9.0.3} date 2025-12-21T00:36:20-0800
; FORMAT={-:-/ absolute / metric / decimal}
; #@! TF.CreationDate,2025-12-21T00:36:20-08:00
; #@! TF.GenerationSoftware,Kicad,Pcbnew,9.0.3
; #@! TF.FileFunction,Plated,1,2,PTH
FMAT,2
METRIC
; #@! TA.AperFunction,Plated,PTH,ViaDrill
T1C0.300
; #@! TA.AperFunction,Plated,PTH,ComponentDrill
T2C0.600
; #@! TA.AperFunction,Plated,PTH,ComponentDrill
T3C1.000
; #@! TA.AperFunction,Plated,PTH,ComponentDrill
T4C1.020
; #@! TA.AperFunction,Plated,PTH,ComponentDrill
T5C1.200
; #@! TA.AperFunction,Plated,PTH,ComponentDrill
T6C1.300
%
G90
G05
T1
X177.2Y-75.7
T2
X151.1Y-104.2
X155.9Y-104.2
X159.1Y-96.2
X159.1Y-104.2
X159.1Y-112.2
X163.9Y-96.2
X163.9Y-104.2
X163.9Y-112.2
X167.1Y-104.2
X171.9Y-104.2
T3
X143.0Y-66.7
X147.7Y-84.9
X151.2Y-66.7
X151.2Y-84.9
X154.1Y-49.75
X154.1Y-65.15
X156.7Y-49.75
X156.7Y-65.15
X159.3Y-49.75
X159.3Y-65.15
X161.9Y-49.75
X161.9Y-65.15
X164.5Y-49.75
X164.5Y-65.15
X167.1Y-49.75
X167.1Y-65.15
X169.7Y-49.75
X169.7Y-65.15
X172.3Y-49.75
X172.3Y-65.15
X174.9Y-49.75
X174.9Y-52.25
X174.9Y-54.85
X174.9Y-57.45
X174.9Y-60.05
X174.9Y-62.65
X174.9Y-65.15
T4
X158.646Y-75.74
X158.646Y-79.24
X171.6Y-69.82
X171.6Y-72.36
X171.6Y-74.9
X171.6Y-77.44
X171.6Y-79.98
X171.6Y-82.52
X171.6Y-85.06
T5
X143.1Y-104.3
X143.1Y-108.3
X143.1Y-112.3
X157.0Y-43.5
X160.0Y-43.5
X163.0Y-43.5
X166.0Y-43.5
T6
X154.4Y-114.4
X154.5Y-91.7
X158.0Y-91.7
X165.0Y-91.7
X168.5Y-91.7
X168.6Y-114.4
M30
