G04 #@! TF.GenerationSoftware,KiCad,Pcbnew,9.0.3*
G04 #@! TF.CreationDate,2025-12-21T00:38:46-08:00*
G04 #@! TF.ProjectId,games_aparat_electronics,67616d65-735f-4617-9061-7261745f656c,rev?*
G04 #@! TF.SameCoordinates,Original*
G04 #@! TF.FileFunction,Legend,Bot*
G04 #@! TF.FilePolarity,Positive*
%FSLAX46Y46*%
G04 Gerber Fmt 4.6, Leading zero omitted, Abs format (unit mm)*
G04 Created by KiCad (PCBNEW 9.0.3) date 2025-12-21 00:38:46*
%MOMM*%
%LPD*%
G01*
G04 APERTURE LIST*
G04 Aperture macros list*
%AMFreePoly0*
4,1,5,0.750000,-1.000000,-0.750000,-1.000000,-0.750000,1.000000,0.750000,1.000000,0.750000,-1.000000,0.750000,-1.000000,$1*%
G04 Aperture macros list end*
%ADD10C,0.100000*%
%ADD11C,1.000000*%
%ADD12R,2.500000X2.500000*%
%ADD13C,2.000000*%
%ADD14FreePoly0,0.000000*%
%ADD15FreePoly0,270.000000*%
%ADD16O,2.000000X3.500000*%
%ADD17C,1.734000*%
G04 APERTURE END LIST*
D10*
X144400000Y-41800000D02*
X178600000Y-41800000D01*
X178600000Y-89200000D01*
X144400000Y-89200000D01*
X144400000Y-41800000D01*
X163005639Y-45272419D02*
X162815163Y-45272419D01*
X162815163Y-45272419D02*
X162719925Y-45320038D01*
X162719925Y-45320038D02*
X162624687Y-45415276D01*
X162624687Y-45415276D02*
X162577068Y-45605752D01*
X162577068Y-45605752D02*
X162577068Y-45939085D01*
X162577068Y-45939085D02*
X162624687Y-46129561D01*
X162624687Y-46129561D02*
X162719925Y-46224800D01*
X162719925Y-46224800D02*
X162815163Y-46272419D01*
X162815163Y-46272419D02*
X163005639Y-46272419D01*
X163005639Y-46272419D02*
X163100877Y-46224800D01*
X163100877Y-46224800D02*
X163196115Y-46129561D01*
X163196115Y-46129561D02*
X163243734Y-45939085D01*
X163243734Y-45939085D02*
X163243734Y-45605752D01*
X163243734Y-45605752D02*
X163196115Y-45415276D01*
X163196115Y-45415276D02*
X163100877Y-45320038D01*
X163100877Y-45320038D02*
X163005639Y-45272419D01*
X161672306Y-46272419D02*
X162148496Y-46272419D01*
X162148496Y-46272419D02*
X162148496Y-45272419D01*
X161338972Y-45748609D02*
X161005639Y-45748609D01*
X160862782Y-46272419D02*
X161338972Y-46272419D01*
X161338972Y-46272419D02*
X161338972Y-45272419D01*
X161338972Y-45272419D02*
X160862782Y-45272419D01*
X160434210Y-46272419D02*
X160434210Y-45272419D01*
X160434210Y-45272419D02*
X160196115Y-45272419D01*
X160196115Y-45272419D02*
X160053258Y-45320038D01*
X160053258Y-45320038D02*
X159958020Y-45415276D01*
X159958020Y-45415276D02*
X159910401Y-45510514D01*
X159910401Y-45510514D02*
X159862782Y-45700990D01*
X159862782Y-45700990D02*
X159862782Y-45843847D01*
X159862782Y-45843847D02*
X159910401Y-46034323D01*
X159910401Y-46034323D02*
X159958020Y-46129561D01*
X159958020Y-46129561D02*
X160053258Y-46224800D01*
X160053258Y-46224800D02*
X160196115Y-46272419D01*
X160196115Y-46272419D02*
X160434210Y-46272419D01*
X172500000Y-101200000D02*
X166500000Y-101200000D01*
X166500000Y-107200000D01*
X172500000Y-107200000D01*
X172500000Y-101200000D01*
X164500000Y-93200000D02*
X158500000Y-93200000D01*
X158500000Y-99200000D01*
X164500000Y-99200000D01*
X164500000Y-93200000D01*
X164500000Y-109200000D02*
X158500000Y-109200000D01*
X158500000Y-115200000D01*
X164500000Y-115200000D01*
X164500000Y-109200000D01*
X156500000Y-101200000D02*
X150500000Y-101200000D01*
X150500000Y-107200000D01*
X156500000Y-107200000D01*
X156500000Y-101200000D01*
X164500000Y-101200000D02*
X158500000Y-101200000D01*
X158500000Y-107200000D01*
X164500000Y-107200000D01*
X164500000Y-101200000D01*
%LPC*%
D11*
X167100000Y-104200000D03*
X171900000Y-104200000D03*
D12*
X154500000Y-91700000D03*
X158000000Y-91700000D03*
X165000000Y-91700000D03*
X168500000Y-91700000D03*
X154400000Y-114400000D03*
X168600000Y-114400000D03*
D13*
X166000000Y-43500000D03*
X163000000Y-43500000D03*
X160000000Y-43500000D03*
X157000000Y-43500000D03*
X143100000Y-104300000D03*
X143100000Y-108300000D03*
X143100000Y-112300000D03*
D14*
X154100000Y-65400000D03*
X156700000Y-65400000D03*
X159300000Y-65400000D03*
X161900000Y-65400000D03*
X164500000Y-65400000D03*
X167100000Y-65400000D03*
X169700000Y-65400000D03*
X172300000Y-65400000D03*
X174900000Y-65400000D03*
D15*
X175150000Y-62650000D03*
X175150000Y-60050000D03*
X175150000Y-57450000D03*
X175150000Y-54850000D03*
X175150000Y-52250000D03*
D14*
X174900000Y-49500000D03*
X172300000Y-49500000D03*
X169700000Y-49500000D03*
X167100000Y-49500000D03*
X164500000Y-49500000D03*
X161900000Y-49500000D03*
X159300000Y-49500000D03*
X156700000Y-49500000D03*
X154100000Y-49500000D03*
D16*
X147700000Y-84900000D03*
X151200000Y-84900000D03*
X143000000Y-66700000D03*
X151200000Y-66700000D03*
D11*
X159100000Y-96200000D03*
X163900000Y-96200000D03*
X159100000Y-112200000D03*
X163900000Y-112200000D03*
X151100000Y-104200000D03*
X155900000Y-104200000D03*
X159100000Y-104200000D03*
X163900000Y-104200000D03*
D17*
X171600000Y-69820000D03*
X171600000Y-72360000D03*
X171600000Y-74900000D03*
X171600000Y-77440000D03*
X171600000Y-79980000D03*
X171600000Y-82520000D03*
X171600000Y-85060000D03*
X158646000Y-79240000D03*
X158646000Y-75740000D03*
%LPD*%
M02*
