G04 #@! TF.GenerationSoftware,KiCad,Pcbnew,9.0.3*
G04 #@! TF.CreationDate,2025-12-21T00:47:55-08:00*
G04 #@! TF.ProjectId,fluid_keychain_electronics,666c7569-645f-46b6-9579-636861696e5f,rev?*
G04 #@! TF.SameCoordinates,Original*
G04 #@! TF.FileFunction,Copper,L2,Bot*
G04 #@! TF.FilePolarity,Positive*
%FSLAX46Y46*%
G04 Gerber Fmt 4.6, Leading zero omitted, Abs format (unit mm)*
G04 Created by KiCad (PCBNEW 9.0.3) date 2025-12-21 00:47:55*
%MOMM*%
%LPD*%
G01*
G04 APERTURE LIST*
G04 Aperture macros list*
%AMFreePoly0*
4,1,5,0.750000,-1.000000,-0.750000,-1.000000,-0.750000,1.000000,0.750000,1.000000,0.750000,-1.000000,0.750000,-1.000000,$1*%
G04 Aperture macros list end*
G04 #@! TA.AperFunction,ComponentPad*
%ADD10C,2.000000*%
G04 #@! TD*
G04 #@! TA.AperFunction,ComponentPad*
%ADD11R,2.500000X2.500000*%
G04 #@! TD*
G04 #@! TA.AperFunction,ComponentPad*
%ADD12FreePoly0,90.000000*%
G04 #@! TD*
G04 #@! TA.AperFunction,ComponentPad*
%ADD13FreePoly0,0.000000*%
G04 #@! TD*
G04 #@! TA.AperFunction,ComponentPad*
%ADD14O,3.500000X2.000000*%
G04 #@! TD*
G04 #@! TA.AperFunction,ViaPad*
%ADD15C,0.600000*%
G04 #@! TD*
G04 #@! TA.AperFunction,Conductor*
%ADD16C,0.500000*%
G04 #@! TD*
G04 #@! TA.AperFunction,Conductor*
%ADD17C,0.200000*%
G04 #@! TD*
G04 APERTURE END LIST*
D10*
X91500000Y-61500000D03*
X94500000Y-61500000D03*
X97500000Y-61500000D03*
X100500000Y-61500000D03*
D11*
X67800000Y-28500000D03*
X82000000Y-28500000D03*
X67900000Y-51200000D03*
X71400000Y-51200000D03*
X78400000Y-51200000D03*
X81900000Y-51200000D03*
D10*
X89000000Y-28000000D03*
X93000000Y-28000000D03*
X97000000Y-28000000D03*
D12*
X86350000Y-52400000D03*
X86350000Y-49800000D03*
X86350000Y-47200000D03*
X86350000Y-44600000D03*
X86350000Y-42000000D03*
X86350000Y-39400000D03*
X86350000Y-36800000D03*
X86350000Y-34200000D03*
X86350000Y-31600000D03*
D13*
X89100000Y-31350000D03*
X91700000Y-31350000D03*
X94300000Y-31350000D03*
X96900000Y-31350000D03*
X99500000Y-31350000D03*
D12*
X102250000Y-31600000D03*
X102250000Y-34200000D03*
X102250000Y-36800000D03*
X102250000Y-39400000D03*
X102250000Y-42000000D03*
X102250000Y-44600000D03*
X102250000Y-47200000D03*
X102250000Y-49800000D03*
X102250000Y-52400000D03*
D10*
X91500000Y-65000000D03*
X94500000Y-65000000D03*
X97500000Y-65000000D03*
X100500000Y-65000000D03*
D14*
X68400000Y-57000000D03*
X68400000Y-65200000D03*
X86600000Y-57000000D03*
X86600000Y-60500000D03*
D15*
X93500000Y-54500000D03*
X92500000Y-54500000D03*
D16*
X90000000Y-55000000D02*
X95200000Y-49800000D01*
D17*
X100500000Y-65000000D02*
X100500000Y-61500000D01*
X97500000Y-61500000D02*
X92500000Y-56500000D01*
D16*
X75500000Y-57000000D02*
X79000000Y-57000000D01*
X88000000Y-55000000D02*
X94500000Y-61500000D01*
X94500000Y-65000000D02*
X94500000Y-61500000D01*
X79000000Y-57000000D02*
X82500000Y-60500000D01*
X68400000Y-57000000D02*
X75500000Y-57000000D01*
D17*
X67900000Y-56500000D02*
X68400000Y-57000000D01*
D16*
X77500000Y-55000000D02*
X75500000Y-57000000D01*
X88000000Y-55000000D02*
X77500000Y-55000000D01*
X82500000Y-60500000D02*
X86600000Y-60500000D01*
X95200000Y-49800000D02*
X102000000Y-49800000D01*
D17*
X92500000Y-56500000D02*
X92500000Y-54500000D01*
X97500000Y-65000000D02*
X97500000Y-61500000D01*
D16*
X88000000Y-55000000D02*
X90000000Y-55000000D01*
X67900000Y-51200000D02*
X67900000Y-56500000D01*
D17*
X100500000Y-61500000D02*
X93500000Y-54500000D01*
M02*
